<svg xmlns="http://www.w3.org/2000/svg" viewBox="0 0 800 400">
  <!-- Management Plane outer box -->
  <rect x="150" y="20" width="500" height="120" fill="none" stroke="#42affa" stroke-width="2" rx="4"/>
  <text x="400" y="55" fill="#42affa" font-family="Arial, sans-serif" font-size="18" text-anchor="middle">Management Plane</text>

  <!-- Management Plane inner boxes -->
  <rect x="170" y="70" width="100" height="50" fill="#1a3a5c" stroke="#42affa" stroke-width="1" rx="3"/>
  <text x="220" y="92" fill="white" font-family="Arial, sans-serif" font-size="11" text-anchor="middle">Lifecycle</text>
  <text x="220" y="106" fill="white" font-family="Arial, sans-serif" font-size="11" text-anchor="middle">Management</text>

  <rect x="280" y="70" width="90" height="50" fill="#1a3a5c" stroke="#42affa" stroke-width="1" rx="3"/>
  <text x="325" y="100" fill="white" font-family="Arial, sans-serif" font-size="11" text-anchor="middle">Site Profiles</text>

  <rect x="380" y="70" width="80" height="50" fill="#1a3a5c" stroke="#42affa" stroke-width="1" rx="3"/>
  <text x="420" y="100" fill="white" font-family="Arial, sans-serif" font-size="11" text-anchor="middle">Visibility</text>

  <rect x="470" y="70" width="80" height="50" fill="#1a3a5c" stroke="#42affa" stroke-width="1" rx="3"/>
  <text x="510" y="100" fill="white" font-family="Arial, sans-serif" font-size="11" text-anchor="middle">Monitoring</text>

  <rect x="560" y="70" width="70" height="50" fill="#1a3a5c" stroke="#42affa" stroke-width="1" rx="3"/>
  <text x="595" y="100" fill="white" font-family="Arial, sans-serif" font-size="11" text-anchor="middle">Auditing</text>

  <!-- Control and Data Plane boxes -->
  <!-- Box 1 -->
  <rect x="40" y="200" width="220" height="170" fill="none" stroke="#42affa" stroke-width="2" rx="4"/>
  <text x="150" y="230" fill="#42affa" font-family="Arial, sans-serif" font-size="14" text-anchor="middle">Control and Data Plane</text>

  <rect x="60" y="250" width="80" height="40" fill="#1a3a5c" stroke="#42affa" stroke-width="1" rx="3"/>
  <text x="100" y="275" fill="white" font-family="Arial, sans-serif" font-size="12" text-anchor="middle">VMs</text>

  <rect x="160" y="250" width="80" height="40" fill="#1a3a5c" stroke="#42affa" stroke-width="1" rx="3"/>
  <text x="200" y="275" fill="white" font-family="Arial, sans-serif" font-size="12" text-anchor="middle">Containers</text>

  <rect x="60" y="310" width="180" height="40" fill="#1a3a5c" stroke="#42affa" stroke-width="1" rx="3"/>
  <text x="150" y="335" fill="white" font-family="Arial, sans-serif" font-size="12" text-anchor="middle">ESXi</text>

  <!-- Box 2 -->
  <rect x="290" y="200" width="220" height="170" fill="none" stroke="#42affa" stroke-width="2" rx="4"/>
  <text x="400" y="230" fill="#42affa" font-family="Arial, sans-serif" font-size="14" text-anchor="middle">Control and Data Plane</text>

  <rect x="310" y="250" width="80" height="40" fill="#1a3a5c" stroke="#42affa" stroke-width="1" rx="3"/>
  <text x="350" y="275" fill="white" font-family="Arial, sans-serif" font-size="12" text-anchor="middle">VMs</text>

  <rect x="410" y="250" width="80" height="40" fill="#1a3a5c" stroke="#42affa" stroke-width="1" rx="3"/>
  <text x="450" y="275" fill="white" font-family="Arial, sans-serif" font-size="12" text-anchor="middle">Containers</text>

  <rect x="310" y="310" width="180" height="40" fill="#1a3a5c" stroke="#42affa" stroke-width="1" rx="3"/>
  <text x="400" y="335" fill="white" font-family="Arial, sans-serif" font-size="12" text-anchor="middle">ESXi</text>

  <!-- Box 3 -->
  <rect x="540" y="200" width="220" height="170" fill="none" stroke="#42affa" stroke-width="2" rx="4"/>
  <text x="650" y="230" fill="#42affa" font-family="Arial, sans-serif" font-size="14" text-anchor="middle">Control and Data Plane</text>

  <rect x="560" y="250" width="80" height="40" fill="#1a3a5c" stroke="#42affa" stroke-width="1" rx="3"/>
  <text x="600" y="275" fill="white" font-family="Arial, sans-serif" font-size="12" text-anchor="middle">VMs</text>

  <rect x="660" y="250" width="80" height="40" fill="#1a3a5c" stroke="#42affa" stroke-width="1" rx="3"/>
  <text x="700" y="275" fill="white" font-family="Arial, sans-serif" font-size="12" text-anchor="middle">Containers</text>

  <rect x="560" y="310" width="180" height="40" fill="#1a3a5c" stroke="#42affa" stroke-width="1" rx="3"/>
  <text x="650" y="335" fill="white" font-family="Arial, sans-serif" font-size="12" text-anchor="middle">ESXi</text>
</svg>
